<?xml version="1.0" encoding="UTF-8"?>
<svg width="64" height="64" version="1.1" viewBox="0 0 16.933 16.933" xmlns="http://www.w3.org/2000/svg" xmlns:xlink="http://www.w3.org/1999/xlink"><defs><clipPath id="clippy"><rect width="16.933" height="16.933" ry="1"/></clipPath><radialGradient id="b" cx="8.6972" cy="-4.2398" r="8.4667" gradientTransform="matrix(-2.612 .056083 -.038123 -1.7755 30.491 -9.1064)" gradientUnits="userSpaceOnUse"><stop stop-color="#139e7c" offset="0"/><stop stop-color="#122548" offset="1"/></radialGradient><linearGradient id="linearGradient846" x1="-10.467" x2="-10.736" y1="4.7058" y2="4.7058" gradientUnits="userSpaceOnUse"><stop offset="0"/><stop stop-opacity="0" offset="1"/></linearGradient><linearGradient id="linearGradient874" x1="7.4633" x2="6.7959" y1="8.9935" y2="11.681" gradientUnits="userSpaceOnUse"><stop stop-color="#00ffd6" offset="0"/><stop stop-color="#007f64" offset="1"/></linearGradient></defs><g clip-path="url(#clippy)"><rect width="16.933" height="16.933" ry="0" fill="url(#b)"/><path d="m21.868-1.992a13.402 8.1853 0 0 1-6.7132 7.0929 13.402 8.1853 0 0 1-13.414-0.012891 13.402 8.1853 0 0 1-6.6767-7.1058l13.402 0.025759z" fill="url(#linearGradient846)" stroke="#23e0b7" stroke-width=".50271"/><path d="m5.9543 19.118c0.32505-2.6594 0.93668-3.1497-0.16577-5.2442-0.59266-1.049-2.2826-2.3153-3.1406-3.3342-0.48055-0.7492-1.6045-1.3225-2.2864-2.7903-0.15968-0.98447 2.224 1.2239 2.8948 1.1873 0.25739-0.2849-1.6007-2.177-1.4286-2.8633 0.14314-0.57062 0.21225-1.138 0.78124-1.5697 1.1973-0.3312 3.3913 2.8127 4.9273 3.2604 2.1106-0.72487 3.1742 1.4901 4.8202 1.8301 1.3227 0.15657 3.2074 1.5937 4.2524 2.9708-0.84502 0.59047-3.0445-0.7063-4.4104-0.10811-0.53812 0.82524 1.0996 5.2192 1.3863 5.7331" fill="#120d09" fill-rule="evenodd" stroke="url(#linearGradient874)" stroke-width=".67495" style="mix-blend-mode:luminosity"/></g></svg>
